<svg width="26" height="26" viewBox="0 0 26 26" fill="none" xmlns="http://www.w3.org/2000/svg">
<path d="M25.2294 9.58472C25.2294 11.2422 19.8594 12.5847 13.2294 12.5847C6.59943 12.5847 1.22943 11.2422 1.22943 9.58472" stroke="white" stroke-linecap="round" stroke-linejoin="round"/>
<path d="M25.2294 15.5847C25.2294 17.2422 19.8594 18.5847 13.2294 18.5847C6.59943 18.5847 1.22943 17.2422 1.22943 15.5847" stroke="white" stroke-linecap="round" stroke-linejoin="round"/>
<path d="M25.2294 21.5847C25.2294 23.2422 19.8594 24.5847 13.2294 24.5847C6.59943 24.5847 1.22943 23.2422 1.22943 21.5847" stroke="white" stroke-linecap="round" stroke-linejoin="round"/>
<path d="M13.2294 6.58472C19.8568 6.58472 25.2294 5.24157 25.2294 3.58472C25.2294 1.92786 19.8568 0.584717 13.2294 0.584717C6.60201 0.584717 1.22943 1.92786 1.22943 3.58472C1.22943 5.24157 6.60201 6.58472 13.2294 6.58472Z" stroke="white" stroke-linecap="round" stroke-linejoin="round"/>
<path d="M1.22943 3.58472V21.5847" stroke="white" stroke-linecap="round" stroke-linejoin="round"/>
<path d="M25.2294 3.58472V21.5847" stroke="white" stroke-linecap="round" stroke-linejoin="round"/>
</svg>
