<svg width="26" height="21" viewBox="0 0 26 21" fill="none" xmlns="http://www.w3.org/2000/svg">
<path d="M21.8761 6.70174V4.03507C21.8761 3.32783 21.5951 2.64959 21.095 2.1495C20.5949 1.6494 19.9166 1.36841 19.2094 1.36841H3.2094C2.50215 1.36841 1.82391 1.6494 1.32382 2.1495C0.823719 2.64959 0.542728 3.32783 0.542728 4.03507V17.3684C0.542728 18.0757 0.823719 18.7539 1.32382 19.254C1.82391 19.7541 2.50215 20.0351 3.2094 20.0351H19.2094C19.9166 20.0351 20.5949 19.7541 21.095 19.254C21.5951 18.7539 21.8761 18.0757 21.8761 17.3684V14.7017" stroke="white" stroke-linecap="round" stroke-linejoin="round"/>
<path d="M23.2094 6.70166H16.5427C15.8063 6.70166 15.2094 7.29861 15.2094 8.03499V13.3683C15.2094 14.1047 15.8063 14.7017 16.5427 14.7017H23.2094C23.9458 14.7017 24.5427 14.1047 24.5427 13.3683V8.03499C24.5427 7.29861 23.9458 6.70166 23.2094 6.70166Z" stroke="white" stroke-linecap="round" stroke-linejoin="round"/>
</svg>
