<svg width="26" height="26" viewBox="0 0 26 26" fill="none" xmlns="http://www.w3.org/2000/svg">
<path d="M23.8547 1.95966C24.2904 2.39264 24.6361 2.90749 24.8721 3.47459C25.108 4.04168 25.2294 4.64985 25.2294 5.26407C25.2294 5.87828 25.108 6.48643 24.8721 7.05353C24.6361 7.62063 24.2904 8.13548 23.8547 8.56845L21.1926 11.2306C20.7596 11.6663 20.2448 12.012 19.6777 12.2479C19.1106 12.4838 18.5024 12.6053 17.8882 12.6053C17.274 12.6053 16.6658 12.4838 16.0987 12.2479C15.5316 12.012 15.0168 11.6663 14.5838 11.2306V11.2306C14.1481 10.7976 13.8024 10.2828 13.5665 9.71568C13.3305 9.14858 13.2091 8.54043 13.2091 7.92621C13.2091 7.312 13.3305 6.70383 13.5665 6.13673C13.8024 5.56963 14.1481 5.05478 14.5838 4.62181L17.2459 1.95966C17.6789 1.52401 18.1937 1.17827 18.7608 0.942346C19.3279 0.70642 19.9362 0.584961 20.5504 0.584961C21.1646 0.584961 21.7727 0.70642 22.3398 0.942346C22.9069 1.17827 23.4218 1.52401 23.8547 1.95966V1.95966Z" stroke="white" stroke-linecap="round" stroke-linejoin="round"/>
<path d="M11.8751 13.9392C12.3107 14.3721 12.6565 14.887 12.8924 15.4541C13.1283 16.0212 13.2498 16.6293 13.2498 17.2436C13.2498 17.8578 13.1283 18.4659 12.8924 19.033C12.6565 19.6001 12.3107 20.115 11.8751 20.5479L9.21295 23.2101C8.77997 23.6457 8.26512 23.9915 7.69802 24.2274C7.13092 24.4633 6.5228 24.5848 5.90858 24.5848C5.29436 24.5848 4.68615 24.4633 4.11906 24.2274C3.55196 23.9915 3.03711 23.6457 2.60413 23.2101C2.16848 22.7771 1.82274 22.2623 1.58682 21.6952C1.35089 21.1281 1.22943 20.5199 1.22943 19.9057C1.22943 19.2915 1.35089 18.6833 1.58682 18.1162C1.82274 17.5491 2.16848 17.0343 2.60413 16.6013L5.26628 13.9392C5.69925 13.5035 6.2141 13.1578 6.7812 12.9218C7.3483 12.6859 7.95651 12.5645 8.57073 12.5645C9.18494 12.5645 9.79307 12.6859 10.3602 12.9218C10.9273 13.1578 11.4421 13.5035 11.8751 13.9392Z" stroke="white" stroke-linecap="round" stroke-linejoin="round"/>
<path d="M9.21295 16.5685L17.1994 8.58203" stroke="white" stroke-linecap="round" stroke-linejoin="round"/>
</svg>
