<svg width="25" height="26" viewBox="0 0 25 26" fill="none" xmlns="http://www.w3.org/2000/svg">
<path d="M4.02946 17.3281L3.51979 17.8528C1.58179 19.865 0.506037 22.5544 0.521683 25.3481C3.31535 25.3637 6.00473 24.288 8.01694 22.35L8.52661 21.8403" stroke="white" stroke-linecap="round" stroke-linejoin="round"/>
<path d="M13.9982 14.8397C15.654 14.8397 16.9963 13.4974 16.9963 11.8416C16.9963 10.1858 15.654 8.84351 13.9982 8.84351C12.3423 8.84351 11.0001 10.1858 11.0001 11.8416C11.0001 13.4974 12.3423 14.8397 13.9982 14.8397Z" stroke="white" stroke-linecap="round" stroke-linejoin="round"/>
<path d="M5.30367 10.0426L0.506691 8.84337L2.98762 6.36245C4.10155 5.24778 5.42424 4.3636 6.88008 3.76042C8.33593 3.15725 9.8964 2.84691 11.4723 2.84717H14.8976" stroke="white" stroke-linecap="round" stroke-linejoin="round"/>
<path d="M22.9925 10.9421V14.3675C22.9927 15.9433 22.6824 17.5038 22.0792 18.9596C21.476 20.4155 20.5918 21.7382 19.4772 22.8521L16.9963 25.333L15.797 20.5361" stroke="white" stroke-linecap="round" stroke-linejoin="round"/>
<path d="M24.4915 1.34814H22.6926C19.9365 1.34795 17.2074 1.89063 14.6611 2.94519C12.1147 3.99974 9.80099 5.54551 7.85204 7.49427L5.75337 9.59293C5.06352 10.2815 4.51621 11.0993 4.14279 11.9996C3.76937 12.8999 3.57717 13.8649 3.57717 14.8396C3.57717 15.8143 3.76937 16.7794 4.14279 17.6797C4.51621 18.5799 5.06352 19.3978 5.75337 20.0863V20.0863C6.4419 20.7761 7.25972 21.3235 8.16001 21.6969C9.0603 22.0703 10.0254 22.2625 11.0001 22.2625C11.9747 22.2625 12.9398 22.0703 13.8401 21.6969C14.7404 21.3235 15.5582 20.7761 16.2467 20.0863L18.3454 17.9876C20.2941 16.0387 21.8399 13.7249 22.8945 11.1786C23.949 8.63222 24.4917 5.90312 24.4915 3.14702V1.34814Z" stroke="white" stroke-linecap="round" stroke-linejoin="round"/>
<path d="M23.8769 8.22892L17.6109 1.96289" stroke="white" stroke-linecap="round" stroke-linejoin="round"/>
</svg>
