<svg width="26" height="26" viewBox="0 0 26 26" fill="none" xmlns="http://www.w3.org/2000/svg">
<path d="M13.2295 24.9712C19.8569 24.9712 25.2295 19.5986 25.2295 12.9712C25.2295 6.34377 19.8569 0.971191 13.2295 0.971191C6.60208 0.971191 1.22949 6.34377 1.22949 12.9712C1.22949 19.5986 6.60208 24.9712 13.2295 24.9712Z" stroke="white" stroke-linecap="round" stroke-linejoin="round"/>
<path d="M1.92285 16.9712H24.5361" stroke="white" stroke-linecap="round" stroke-linejoin="round"/>
<path d="M1.92285 8.97119H24.5361" stroke="white" stroke-linecap="round" stroke-linejoin="round"/>
<path d="M11.8561 1.05127C10.1257 4.78685 9.22949 8.85438 9.22949 12.9713C9.22949 17.0882 10.1257 21.1557 11.8561 24.8913" stroke="white" stroke-linecap="round" stroke-linejoin="round"/>
<path d="M14.6029 1.05127C16.3332 4.78685 17.2295 8.85439 17.2295 12.9713C17.2295 17.0882 16.3332 21.1557 14.6029 24.8913" stroke="white" stroke-linecap="round" stroke-linejoin="round"/>
</svg>
