<svg width="35" height="35" viewBox="0 0 35 35" fill="none" xmlns="http://www.w3.org/2000/svg">
<g opacity="0.7">
<path d="M33.1509 13.1865C33.1509 15.3965 25.9909 17.1865 17.1509 17.1865C8.31088 17.1865 1.15088 15.3965 1.15088 13.1865" stroke="white" stroke-width="2" stroke-linecap="round" stroke-linejoin="round"/>
<path d="M33.1509 21.1865C33.1509 23.3965 25.9909 25.1865 17.1509 25.1865C8.31088 25.1865 1.15088 23.3965 1.15088 21.1865" stroke="white" stroke-width="2" stroke-linecap="round" stroke-linejoin="round"/>
<path d="M33.1509 29.1865C33.1509 31.3965 25.9909 33.1865 17.1509 33.1865C8.31088 33.1865 1.15088 31.3965 1.15088 29.1865" stroke="white" stroke-width="2" stroke-linecap="round" stroke-linejoin="round"/>
<path d="M17.1509 9.18652C25.9874 9.18652 33.1509 7.39566 33.1509 5.18652C33.1509 2.97738 25.9874 1.18652 17.1509 1.18652C8.31432 1.18652 1.15088 2.97738 1.15088 5.18652C1.15088 7.39566 8.31432 9.18652 17.1509 9.18652Z" stroke="white" stroke-width="2" stroke-linecap="round" stroke-linejoin="round"/>
<path d="M1.15088 5.18652V29.1865" stroke="white" stroke-width="2" stroke-linecap="round" stroke-linejoin="round"/>
<path d="M33.1509 5.18652V29.1865" stroke="white" stroke-width="2" stroke-linecap="round" stroke-linejoin="round"/>
</g>
</svg>
