<svg width="35" height="35" viewBox="0 0 35 35" fill="none" xmlns="http://www.w3.org/2000/svg">
<g opacity="0.7">
<path d="M28.5329 23.0831L31.4129 25.9453L26.3816 30.9764L23.5016 28.0964C22.749 28.5024 21.9568 28.83 21.1373 29.0742V33.1631H14.0262V29.092C13.2066 28.8478 12.4144 28.5202 11.6618 28.1142L8.78181 30.9942L3.75056 25.9631L6.63055 23.1009C6.2246 22.3482 5.89708 21.556 5.65291 20.7364H1.58173V13.6253H5.65291C5.89708 12.8058 6.2246 12.0135 6.63055 11.2609L3.75056 8.38086L8.78181 3.34977L11.644 6.22976C12.3966 5.82381 13.1889 5.49613 14.0084 5.25195V1.16309H21.1195V5.23421C21.939 5.47839 22.7312 5.80601 23.4839 6.21197V6.21197L26.3463 3.33198L31.3773 8.36306L28.4973 11.2431C28.9033 11.9957 29.2308 12.788 29.475 13.6075H33.5817V20.7186H29.5105C29.2664 21.5382 28.9389 22.3304 28.5329 23.0831V23.0831Z" stroke="white" stroke-width="2" stroke-linecap="round" stroke-linejoin="round"/>
<path d="M17.5817 22.4967C20.5273 22.4967 22.9151 20.1089 22.9151 17.1634C22.9151 14.2179 20.5273 11.8301 17.5817 11.8301C14.6362 11.8301 12.2484 14.2179 12.2484 17.1634C12.2484 20.1089 14.6362 22.4967 17.5817 22.4967Z" stroke="white" stroke-width="2" stroke-linecap="round" stroke-linejoin="round"/>
</g>
</svg>
