<svg width="32" height="35" viewBox="0 0 32 35" fill="none" xmlns="http://www.w3.org/2000/svg">
<path opacity="0.7" d="M18.882 32.1596L16.2153 33.1641L13.5487 32.1596C10.1559 30.892 7.23139 28.6184 5.16628 25.643C3.10117 22.6677 1.99401 19.1325 1.9931 15.5107V8.27517C4.75302 8.27517 7.47508 7.6326 9.94362 6.39833C12.4122 5.16406 14.5594 3.37199 16.2153 1.16406V1.16406C17.8713 3.37199 20.0185 5.16406 22.487 6.39833C24.9556 7.6326 27.6776 8.27517 30.4375 8.27517V8.27517V15.5107C30.4366 19.1325 29.3295 22.6677 27.2644 25.643C25.1993 28.6184 22.2747 30.892 18.882 32.1596V32.1596Z" stroke="white" stroke-width="2" stroke-linecap="round" stroke-linejoin="round"/>
</svg>
