<svg width="26" height="24" viewBox="0 0 26 24" fill="none" xmlns="http://www.w3.org/2000/svg">
<path d="M18.5645 9.41821C20.7738 9.41821 22.5648 7.62719 22.5648 5.41785C22.5648 3.20851 20.7738 1.41748 18.5645 1.41748C16.3551 1.41748 14.5641 3.20851 14.5641 5.41785C14.5641 7.62719 16.3551 9.41821 18.5645 9.41821Z" stroke="white" stroke-linecap="round" stroke-linejoin="round"/>
<path d="M6.56337 12.0852H1.22955V21.4194H6.56337V12.0852Z" stroke="white" stroke-linecap="round" stroke-linejoin="round"/>
<path d="M6.56339 19.5791L12.1773 22.406C12.6568 22.6434 13.1864 22.7619 13.7213 22.7515C14.2563 22.741 14.781 22.6019 15.2509 22.346L24.5851 17.1122C24.7904 17.0159 24.9616 16.8595 25.0761 16.6637C25.1907 16.468 25.2432 16.2422 25.2266 16.016C25.2099 15.7898 25.125 15.574 24.9831 15.3971C24.8412 15.2202 24.6489 15.0906 24.4317 15.0253L23.765 14.752L15.8842 16.0854" stroke="white" stroke-linecap="round" stroke-linejoin="round"/>
<path d="M7.89682 13.4185H12.8706L15.3442 14.9052C15.4947 14.9863 15.6233 15.1028 15.7187 15.2447C15.8142 15.3866 15.8736 15.5495 15.892 15.7195C15.9104 15.8895 15.8871 16.0615 15.8242 16.2205C15.7613 16.3795 15.6606 16.5207 15.5308 16.632L15.3842 16.7588C14.997 17.099 14.5195 17.3197 14.0095 17.3942C13.4995 17.4688 12.979 17.394 12.5106 17.1788L11.6305 16.7855" stroke="white" stroke-linecap="round" stroke-linejoin="round"/>
</svg>
