<svg width="44" height="47" viewBox="0 0 44 47" fill="none" xmlns="http://www.w3.org/2000/svg">
<g opacity="0.7">
<path d="M10.6033 26.3807H6.03188C4.81946 26.3807 3.65677 25.899 2.79946 25.0417C1.94215 24.1844 1.46045 23.0216 1.46045 21.8092C1.46045 20.5968 1.94215 19.434 2.79946 18.5767C3.65677 17.7194 4.81946 17.2378 6.03188 17.2378H10.6033V26.3807Z" stroke="white" stroke-width="2" stroke-linecap="round" stroke-linejoin="round"/>
<path d="M38.0319 26.3807H33.4604V17.2378H38.0319C39.2443 17.2378 40.407 17.7194 41.2643 18.5767C42.1216 19.434 42.6033 20.5968 42.6033 21.8092C42.6033 23.0216 42.1216 24.1844 41.2643 25.0417C40.407 25.899 39.2443 26.3807 38.0319 26.3807Z" stroke="white" stroke-width="2" stroke-linecap="round" stroke-linejoin="round"/>
<path d="M8.31758 17.2378V14.9521C8.31758 11.3148 9.76239 7.82653 12.3343 5.2546C14.9062 2.68268 18.3946 1.23779 22.0319 1.23779V1.23779C25.6691 1.23779 29.1575 2.68268 31.7294 5.2546C34.3013 7.82653 35.7461 11.3148 35.7461 14.9521V17.2378" stroke="white" stroke-width="2" stroke-linecap="round" stroke-linejoin="round"/>
<path d="M10.6033 26.3804C10.6033 28.199 11.3257 29.9431 12.6116 31.2291C13.8976 32.5151 15.6418 33.2375 17.4604 33.2375H19.7461" stroke="white" stroke-width="2" stroke-linecap="round" stroke-linejoin="round"/>
<path opacity="0.7" d="M9.23186 44.6567H15.1619V43.1067H12.3619L13.9919 41.6467C14.2919 41.3867 14.5352 41.1001 14.7219 40.7867C14.9085 40.4667 15.0019 40.1167 15.0019 39.7367C15.0019 39.4701 14.9452 39.2067 14.8319 38.9467C14.7185 38.6867 14.5485 38.4501 14.3219 38.2367C14.1019 38.0167 13.8252 37.8434 13.4919 37.7167C13.1585 37.5834 12.7752 37.5167 12.3419 37.5167C11.7419 37.5167 11.2319 37.6401 10.8119 37.8867C10.3985 38.1334 10.0885 38.4634 9.88186 38.8767C9.67519 39.2901 9.57186 39.7467 9.57186 40.2467H11.2319C11.2319 39.9934 11.2719 39.7701 11.3519 39.5767C11.4385 39.3834 11.5619 39.2334 11.7219 39.1267C11.8885 39.0201 12.0785 38.9667 12.2919 38.9667C12.4519 38.9667 12.5919 38.9934 12.7119 39.0467C12.8319 39.0934 12.9319 39.1601 13.0119 39.2467C13.0919 39.3267 13.1519 39.4201 13.1919 39.5267C13.2319 39.6334 13.2519 39.7401 13.2519 39.8467C13.2519 40.0334 13.2152 40.2101 13.1419 40.3767C13.0752 40.5367 12.9719 40.7001 12.8319 40.8667C12.6985 41.0334 12.5385 41.2201 12.3519 41.4267L9.23186 44.6567ZM15.7344 43.4167H22.1544V41.9767H20.7244L20.5544 42.1967H17.9744L19.4844 40.1067V42.7867L19.2944 42.8967V44.6567H21.0544V37.6567H19.7944L15.7344 43.4167ZM27.0568 37.6567L22.7268 46.1567H24.2368L28.5068 37.6567H27.0568ZM28.9608 39.2367H32.1908L29.4608 44.6567H31.2908L34.6708 37.6567H28.9608V39.2367Z" fill="white"/>
</g>
</svg>
