<svg width="25" height="25" viewBox="0 0 25 25" fill="none" xmlns="http://www.w3.org/2000/svg">
<path d="M23.973 15.1785C25.7107 7.36993 18.87 0.276228 10.8364 1.63798C6.47524 -1.06853 0.668304 1.98991 0.668304 7.17896C0.668304 8.38574 1.00124 9.51553 1.58014 10.4894C-0.0345665 18.3159 6.86217 25.3076 14.8887 23.8529C15.8245 24.3478 16.8923 24.6298 18.0271 24.6298C22.9752 24.6298 26.1436 19.4977 23.973 15.1785ZM12.7621 20.5095C10.4205 20.5095 8.13293 19.9446 6.77918 18.011C4.76155 15.1575 7.42206 13.7298 8.72783 14.8176C9.81763 15.7364 9.47569 17.959 12.6761 17.959C14.0868 17.959 15.8285 17.3571 15.8285 15.9584C15.8285 13.1439 9.58467 14.4756 7.10212 11.4072C6.19029 10.2834 6.01832 8.30076 7.13812 6.86302C9.08976 4.35148 14.8167 4.19851 17.2793 6.09516C19.5528 7.85484 18.9389 10.1904 17.1043 10.1904C14.8977 10.1904 16.0575 7.30294 12.4951 7.30294C9.91261 7.30294 8.89679 9.1396 10.7155 10.0334C13.136 11.2352 19.4639 10.8603 19.4639 15.6354C19.4559 18.9918 16.2175 20.5095 12.7621 20.5095Z" fill="white"/>
</svg>
