<svg width="18" height="19" viewBox="0 0 18 19" fill="none" xmlns="http://www.w3.org/2000/svg">
<path d="M9.00024 0.799203C5.31677 0.799203 1.81895 0.471536 0.48292 3.90038C-0.0689408 5.31655 0.0112009 7.15575 0.0112009 9.78926C0.0112009 12.1002 -0.0628541 14.2721 0.48292 15.6771C1.81591 19.108 5.34214 18.7793 8.99821 18.7793C12.5255 18.7793 16.1623 19.1465 17.5145 15.6771C18.0674 14.2468 17.9862 12.4349 17.9862 9.78926C17.9862 6.27723 18.18 4.00994 16.4767 2.30769C14.7522 0.583125 12.42 0.799203 8.99619 0.799203H9.00024ZM8.19477 2.41928C15.8782 2.40711 16.8561 1.55294 16.3165 13.419C16.1247 17.6157 12.9292 17.1552 9.00126 17.1552C1.83924 17.1552 1.63331 16.9503 1.63331 9.7852C1.63331 2.53696 2.2014 2.42334 8.19477 2.41725V2.41928ZM13.7986 3.91154C13.2031 3.91154 12.7202 4.39441 12.7202 4.9899C12.7202 5.58538 13.2031 6.06826 13.7986 6.06826C14.3941 6.06826 14.877 5.58538 14.877 4.9899C14.877 4.39441 14.3941 3.91154 13.7986 3.91154ZM9.00024 5.1725C6.45093 5.1725 4.3845 7.23995 4.3845 9.78926C4.3845 12.3386 6.45093 14.405 9.00024 14.405C11.5496 14.405 13.615 12.3386 13.615 9.78926C13.615 7.23995 11.5496 5.1725 9.00024 5.1725ZM9.00024 6.79257C12.9617 6.79257 12.9667 12.7859 9.00024 12.7859C5.03983 12.7859 5.03374 6.79257 9.00024 6.79257Z" fill="white"/>
</svg>
