<svg width="18" height="19" viewBox="0 0 18 19" fill="none" xmlns="http://www.w3.org/2000/svg">
<path fill-rule="evenodd" clip-rule="evenodd" d="M8.99999 0.790527C8.54811 0.790527 8.18181 1.15684 8.18181 1.60871V13.0633C8.18181 13.967 7.44919 14.6996 6.54545 14.6996C5.64171 14.6996 4.90909 13.967 4.90909 13.0633C4.90909 12.1595 5.64171 11.4269 6.54545 11.4269C6.99731 11.4269 7.36363 11.0606 7.36363 10.6087V8.15416C7.36363 7.7023 6.99731 7.33598 6.54545 7.33598C3.38237 7.33598 0.818176 9.90016 0.818176 13.0633C0.818176 16.2263 3.38237 18.7905 6.54545 18.7905C9.70854 18.7905 12.2727 16.2263 12.2727 13.0633V8.69572C13.4763 9.39183 14.8739 9.79053 16.3636 9.79053C16.8155 9.79053 17.1818 9.42423 17.1818 8.97235V6.5178C17.1818 6.06593 16.8155 5.69962 16.3636 5.69962C14.1043 5.69962 12.2727 3.86805 12.2727 1.60871C12.2727 1.15684 11.9064 0.790527 11.4545 0.790527H8.99999Z" fill="white"/>
</svg>
