<svg width="16" height="12" viewBox="0 0 16 12" fill="none" xmlns="http://www.w3.org/2000/svg">
<path d="M0.358056 9.70429C0.684497 10.8622 1.68314 11.074 1.74976 11.1147C3.39329 11.5623 12.6056 11.5637 14.2738 11.1147C15.4163 10.7842 15.6262 9.77092 15.6655 9.70429C16.1005 7.38989 16.1292 4.37265 15.6455 1.74646L15.6655 1.87704C15.339 0.719173 14.3404 0.507319 14.2738 0.466681C12.6522 0.0263187 3.41594 0.00966354 1.74976 0.466681C0.607217 0.797785 0.397362 1.81042 0.358056 1.87704C-0.107622 4.30936 -0.130939 7.1001 0.358056 9.70429ZM6.4112 8.22332V3.36468L10.5857 5.79766L6.4112 8.22332Z" fill="white"/>
</svg>
